<svg width="220px" height="80px" xmlns="http://www.w3.org/2000/svg" viewBox="-373.0834716796875 -173.79999999999998 1246.166943359375 497.59999999999997" style="background: rgba(0, 0, 0, 0);" preserveAspectRatio="xMidYMid"><defs><filter id="editing-extrude-glow"><feFlood flood-color="#3297f2" result="flood-1"></feFlood><feMorphology operator="erode" radius="1" in="SourceAlpha" result="erode"></feMorphology><feComposite operator="in" in="flood-1" in2="erode" result="comp1"></feComposite><feConvolveMatrix order="4,4" divisor="1" in="comp1" result="convolve" kernelMatrix="0 0 0 0 0 0 0 0 1 1 1 1 0 0 0 0"></feConvolveMatrix><feOffset dx="-4" dy="0" in="convolve" result="extrude"></feOffset><feComposite operator="in" in="flood-1" in2="extrude" result="comp-extrude"></feComposite><feFlood flood-color="#3297f2" result="flood-2"></feFlood><feComposite operator="in" in="flood-2" in2="SourceAlpha" result="comp2"></feComposite><feMorphology operator="dilate" radius="1" in="comp2" result="dilate"></feMorphology><feOffset dx="-6" dy="0" in="dilate" result="offset"></feOffset><feGaussianBlur in="offset" stdDeviation="5.8" result="blur"></feGaussianBlur><feComponentTransfer in="blur" result="shadow"><feFuncA type="linear" slope="0.8" intercept="-0.2"></feFuncA></feComponentTransfer><feMerge><feMergeNode in="shadow"></feMergeNode><feMergeNode in="comp-extrude"></feMergeNode><feMergeNode in="SourceGraphic"></feMergeNode></feMerge></filter></defs><g filter="url(#editing-extrude-glow)"><g transform="translate(-207.0022430419922, 200.60000610351562)"><path d="M123.20-44.60L123.20-44.60Q125.80-44.60 127.30-42.20L127.30-42.20L127.30-42.20Q128.80-39.80 128.80-35.60L128.80-35.60L128.80-35.60Q128.80-27.60 125-23.20L125-23.20L125-23.20Q116.80-13.20 107-6.10L107-6.10L107-6.10Q97.20 1 87.60 1L87.60 1L87.60 1Q72.40 1 64.40-16.80L64.40-16.80L64.40-16.80Q56-6.20 49.70-2.60L49.70-2.60L49.70-2.60Q43.40 1 35 1L35 1L35 1Q22.80 1 14.90-8.10L14.90-8.10L14.90-8.10Q7-17.20 7-31.80L7-31.80L7-31.80Q7-47.80 13.80-61.50L13.80-61.50L13.80-61.50Q20.60-75.20 32.50-83.90L32.50-83.90L32.50-83.90Q44.40-92.60 59.20-94.20L59.20-94.20L59.20-94.20Q63-133 73.70-160.50L73.70-160.50L73.70-160.50Q84.40-188 101.80-188L101.80-188L101.80-188Q110.40-188 116.10-180.20L116.10-180.20L116.10-180.20Q121.80-172.40 121.80-156.60L121.80-156.60L121.80-156.60Q121.80-134.20 110.80-104.20L110.80-104.20L110.80-104.20Q99.80-74.20 81.40-42.60L81.40-42.60L81.40-42.60Q82.20-31 84.90-26L84.90-26L84.90-26Q87.60-21 91.80-21L91.80-21L91.80-21Q97.20-21 102.80-25.80L102.80-25.80L102.80-25.80Q108.40-30.60 117.80-41.80L117.80-41.80L117.80-41.80Q120.20-44.60 123.20-44.60L123.20-44.60ZM99.60-168.40L99.60-168.40Q95.80-168.40 92-154.90L92-154.90L92-154.90Q88.20-141.40 85.50-119.60L85.50-119.60L85.50-119.60Q82.80-97.80 81.60-74L81.60-74L81.60-74Q104-122.80 104-152.40L104-152.40L104-152.40Q104-160 102.70-164.20L102.70-164.20L102.70-164.20Q101.40-168.40 99.60-168.40L99.60-168.40ZM42-19.20L42-19.20Q45.80-19.20 49.60-22.30L49.60-22.30L49.60-22.30Q53.40-25.40 59.20-33.80L59.20-33.80L59.20-33.80Q57.20-44.60 57.20-58L57.20-58L57.20-58Q57.20-62.80 57.60-73.60L57.60-73.60L57.60-73.60Q46.60-70.20 39.30-58.90L39.30-58.90L39.30-58.90Q32-47.60 32-33.80L32-33.80L32-33.80Q32-19.20 42-19.20L42-19.20ZM214.60-61.40L214.60-61.40Q217.20-61.40 218.60-58.80L218.60-58.80L218.60-58.80Q220-56.20 220-52.20L220-52.20L220-52.20Q220-42.60 214.20-40.80L214.20-40.80L214.20-40.80Q202.20-36.60 187.80-36L187.80-36L187.80-36Q184-19.20 172.80-9.10L172.80-9.10L172.80-9.10Q161.60 1 147.40 1L147.40 1L147.40 1Q135.40 1 126.90-4.80L126.90-4.80L126.90-4.80Q118.40-10.60 114-20.20L114-20.20L114-20.20Q109.60-29.80 109.60-41L109.60-41L109.60-41Q109.60-56.20 115.40-68.10L115.40-68.10L115.40-68.10Q121.20-80 131.40-86.70L131.40-86.70L131.40-86.70Q141.60-93.40 154-93.40L154-93.40L154-93.40Q169.20-93.40 178.50-82.90L178.50-82.90L178.50-82.90Q187.80-72.40 189.40-57L189.40-57L189.40-57Q198.80-57.60 211.80-61L211.80-61L211.80-61Q213.40-61.40 214.60-61.40L214.60-61.40ZM149-20.20L149-20.20Q155.40-20.20 160.10-25.40L160.10-25.40L160.10-25.40Q164.80-30.60 166.40-40.40L166.40-40.40L166.40-40.40Q160.20-44.60 156.90-51.40L156.90-51.40L156.90-51.40Q153.60-58.20 153.60-65.80L153.60-65.80L153.60-65.80Q153.60-69 154.20-72.20L154.20-72.20L153.20-72.20L153.20-72.20Q145.20-72.20 139.90-64.50L139.90-64.50L139.90-64.50Q134.60-56.80 134.60-42.80L134.60-42.80L134.60-42.80Q134.60-31.80 138.90-26L138.90-26L138.90-26Q143.20-20.20 149-20.20L149-20.20ZM292-44.60L292-44.60Q294.60-44.60 296.10-42.20L296.10-42.20L296.10-42.20Q297.60-39.80 297.60-35.60L297.60-35.60L297.60-35.60Q297.60-27.60 293.80-23.20L293.80-23.20L293.80-23.20Q285.20-12.60 275-5.80L275-5.80L275-5.80Q264.80 1 251.60 1L251.60 1L251.60 1Q210.80 1 210.80-56.40L210.80-56.40L210.80-56.40Q210.80-65.20 211.40-74.20L211.40-74.20L203.60-74.20L203.60-74.20Q197.60-74.20 195.50-76.40L195.50-76.40L195.50-76.40Q193.40-78.60 193.40-83.40L193.40-83.40L193.40-83.40Q193.40-94.60 202.40-94.60L202.40-94.60L213.80-94.60L213.80-94.60Q217.20-116.60 224.20-134.80L224.20-134.80L224.20-134.80Q231.20-153 241.10-163.80L241.10-163.80L241.10-163.80Q251-174.60 262.40-174.60L262.40-174.60L262.40-174.60Q270.80-174.60 275.60-167.20L275.60-167.20L275.60-167.20Q280.40-159.80 280.40-148.60L280.40-148.60L280.40-148.60Q280.40-117.60 254.40-94.60L254.40-94.60L276.80-94.60L276.80-94.60Q280-94.60 281.40-93.20L281.40-93.20L281.40-93.20Q282.80-91.80 282.80-88L282.80-88L282.80-88Q282.80-74.20 260.20-74.20L260.20-74.20L235.80-74.20L235.80-74.20Q235.40-64.20 235.40-58.60L235.40-58.60L235.40-58.60Q235.40-37.80 240.30-29.40L240.30-29.40L240.30-29.40Q245.20-21 255.80-21L255.80-21L255.80-21Q264.40-21 271-26.20L271-26.20L271-26.20Q277.60-31.40 286.60-41.80L286.60-41.80L286.60-41.80Q289-44.60 292-44.60L292-44.60ZM257-155.40L257-155.40Q254-155.40 250.30-147.90L250.30-147.90L250.30-147.90Q246.60-140.40 243.30-127.10L243.30-127.10L243.30-127.10Q240-113.80 237.80-97.60L237.80-97.60L237.80-97.60Q249.60-107.80 255.50-120.50L255.50-120.50L255.50-120.50Q261.40-133.20 261.40-143.60L261.40-143.60L261.40-143.60Q261.40-155.40 257-155.40L257-155.40ZM361.20-56L361.20-56Q366.80-56 366.80-47.60L366.80-47.60L366.80-47.60Q366.80-31.80 342-31.80L342-31.80L342-31.80Q337.20-31.80 328.20-33.60L328.20-33.60L328.20-33.60Q330.80-21.20 332.50-6.10L332.50-6.10L332.50-6.10Q334.20 9 334.20 18.80L334.20 18.80L334.20 18.80Q334.20 40.40 327.20 51.80L327.20 51.80L327.20 51.80Q320.20 63.20 308.80 63.20L308.80 63.20L308.80 63.20Q294.40 63.20 288.30 42.80L288.30 42.80L288.30 42.80Q282.20 22.40 282.20-18.80L282.20-18.80L282.20-18.80Q282.20-57.20 290.50-96.70L290.50-96.70L290.50-96.70Q298.80-136.20 313.30-162.10L313.30-162.10L313.30-162.10Q327.80-188 345.20-188L345.20-188L345.20-188Q354.60-188 359.90-179.60L359.90-179.60L359.90-179.60Q365.20-171.20 365.20-157L365.20-157L365.20-157Q365.20-110 309-54.60L309-54.60L309-54.60Q307-35 307-20.20L307-20.20L307-20.20Q307 0.40 308.40 22.10L308.40 22.10L308.40 22.10Q309.80 43.80 313 43.80L313 43.80L313 43.80Q319 43.80 319 23L319 23L319 23Q319 7.40 316.90-7.20L316.90-7.20L316.90-7.20Q314.80-21.80 311.20-38L311.20-38L311.20-38Q311-40.60 312.90-44.60L312.90-44.60L312.90-44.60Q314.80-48.60 317.60-51.60L317.60-51.60L317.60-51.60Q320.40-54.60 322.60-54.60L322.60-54.60L322.60-54.60Q326.60-54.60 332.20-54.20L332.20-54.20L332.20-54.20Q334-54 336.40-54L336.40-54L336.40-54Q344.40-54 354.20-55.40L354.20-55.40L354.20-55.40Q355.80-55.60 357.60-55.80L357.60-55.80L357.60-55.80Q359.40-56 361.20-56L361.20-56ZM341-168.20L341-168.20Q337.40-168.20 332.10-156L332.10-156L332.10-156Q326.80-143.80 321.60-123.70L321.60-123.70L321.60-123.70Q316.40-103.60 312.60-81.20L312.60-81.20L312.60-81.20Q328.60-99.40 337.20-119.10L337.20-119.10L337.20-119.10Q345.80-138.80 346-156L346-156L346-156Q346-168.20 341-168.20L341-168.20ZM381.80-106.40L381.80-106.40Q373.40-106.40 369.20-110.30L369.20-110.30L369.20-110.30Q365-114.20 365-121.20L365-121.20L365-121.20Q365-128.20 370.50-132.90L370.50-132.90L370.50-132.90Q376-137.60 384.20-137.60L384.20-137.60L384.20-137.60Q391.60-137.60 396.20-134L396.20-134L396.20-134Q400.80-130.40 400.80-123.80L400.80-123.80L400.80-123.80Q400.80-115.80 395.60-111.10L395.60-111.10L395.60-111.10Q390.40-106.40 381.80-106.40L381.80-106.40ZM380.20 1L380.20 1Q367.20 1 361.30-8.20L361.30-8.20L361.30-8.20Q355.40-17.40 355.40-32.60L355.40-32.60L355.40-32.60Q355.40-41.60 357.70-55.70L357.70-55.70L357.70-55.70Q360-69.80 363.60-82L363.60-82L363.60-82Q365.40-88.40 368.40-90.80L368.40-90.80L368.40-90.80Q371.40-93.20 378-93.20L378-93.20L378-93.20Q388.20-93.20 388.20-86.40L388.20-86.40L388.20-86.40Q388.20-81.40 384.40-63.20L384.40-63.20L384.40-63.20Q379.60-41.20 379.60-33.40L379.60-33.40L379.60-33.40Q379.60-27.40 381.20-24.20L381.20-24.20L381.20-24.20Q382.80-21 386.60-21L386.60-21L386.60-21Q390.20-21 395.60-26L395.60-26L395.60-26Q401-31 410-41.80L410-41.80L410-41.80Q412.40-44.60 415.40-44.60L415.40-44.60L415.40-44.60Q418-44.60 419.50-42.20L419.50-42.20L419.50-42.20Q421-39.80 421-35.60L421-35.60L421-35.60Q421-27.60 417.20-23.20L417.20-23.20L417.20-23.20Q397.40 1 380.20 1L380.20 1ZM480.60-44.60L480.60-44.60Q483.20-44.60 484.70-42.20L484.70-42.20L484.70-42.20Q486.20-39.80 486.20-35.60L486.20-35.60L486.20-35.60Q486.20-27.60 482.40-23.20L482.40-23.20L482.40-23.20Q473.80-12.60 463.70-5.80L463.70-5.80L463.70-5.80Q453.60 1 440.80 1L440.80 1L440.80 1Q423.20 1 414.70-15L414.70-15L414.70-15Q406.20-31 406.20-56.40L406.20-56.40L406.20-56.40Q406.20-80.80 412.50-112L412.50-112L412.50-112Q418.80-143.20 431.10-165.60L431.10-165.60L431.10-165.60Q443.40-188 460.40-188L460.40-188L460.40-188Q470-188 475.50-179.10L475.50-179.10L475.50-179.10Q481-170.20 481-153.60L481-153.60L481-153.60Q481-129.80 467.80-98.40L467.80-98.40L467.80-98.40Q454.60-67 432-36.20L432-36.20L432-36.20Q433.40-28 436.60-24.50L436.60-24.50L436.60-24.50Q439.80-21 445-21L445-21L445-21Q453.20-21 459.40-25.70L459.40-25.70L459.40-25.70Q465.60-30.40 475.20-41.80L475.20-41.80L475.20-41.80Q477.60-44.60 480.60-44.60L480.60-44.60ZM456-168.20L456-168.20Q451.40-168.20 445.60-151.60L445.60-151.60L445.60-151.60Q439.80-135 435.40-110.40L435.40-110.40L435.40-110.40Q431-85.80 430.60-63.20L430.60-63.20L430.60-63.20Q444.80-86.60 453.20-110.10L453.20-110.10L453.20-110.10Q461.60-133.60 461.60-153L461.60-153L461.60-153Q461.60-168.20 456-168.20L456-168.20ZM559.20-44.60L559.20-44.60Q561.80-44.60 563.30-42.20L563.30-42.20L563.30-42.20Q564.80-39.80 564.80-35.60L564.80-35.60L564.80-35.60Q564.80-27.60 561-23.20L561-23.20L561-23.20Q553.60-14.20 540.10-6.60L540.10-6.60L540.10-6.60Q526.60 1 511.20 1L511.20 1L511.20 1Q490.20 1 478.60-10.40L478.60-10.40L478.60-10.40Q467-21.80 467-41.60L467-41.60L467-41.60Q467-55.40 472.80-67.30L472.80-67.30L472.80-67.30Q478.60-79.20 488.90-86.20L488.90-86.20L488.90-86.20Q499.20-93.20 512.20-93.20L512.20-93.20L512.20-93.20Q523.80-93.20 530.80-86.30L530.80-86.30L530.80-86.30Q537.80-79.40 537.80-67.60L537.80-67.60L537.80-67.60Q537.80-53.80 527.90-43.90L527.90-43.90L527.90-43.90Q518-34 494.40-28.20L494.40-28.20L494.40-28.20Q499.40-19 513.40-19L513.40-19L513.40-19Q522.40-19 533.90-25.30L533.90-25.30L533.90-25.30Q545.40-31.60 553.80-41.80L553.80-41.80L553.80-41.80Q556.20-44.60 559.20-44.60L559.20-44.60ZM508.80-73.60L508.80-73.60Q501.40-73.60 496.30-65L496.30-65L496.30-65Q491.20-56.40 491.20-44.20L491.20-44.20L491.20-43.80L491.20-43.80Q503-46.60 509.80-52.20L509.80-52.20L509.80-52.20Q516.60-57.80 516.60-65.20L516.60-65.20L516.60-65.20Q516.60-69 514.50-71.30L514.50-71.30L514.50-71.30Q512.40-73.60 508.80-73.60L508.80-73.60ZM585.80 5.40L585.80 5.40Q575.40 5.40 569.90 0.60L569.90 0.60L569.90 0.60Q564.40-4.20 564.40-10.20L564.40-10.20L564.40-10.20Q564.40-15.40 568.20-19.20L568.20-19.20L568.20-19.20Q572-23 579.40-23L579.40-23L579.40-23Q582-23 585.50-22.50L585.50-22.50L585.50-22.50Q589-22 590.80-21.80L590.80-21.80L590.80-21.80Q590.60-27 588.50-31.60L588.50-31.60L588.50-31.60Q586.40-36.20 583.20-40.50L583.20-40.50L583.20-40.50Q580-44.80 577.20-48L577.20-48L577.20-48Q571-36.20 564.90-28.40L564.90-28.40L564.90-28.40Q558.80-20.60 551.60-13.60L551.60-13.60L551.60-13.60Q548-10 544-10L544-10L544-10Q540.80-10 538.80-12.30L538.80-12.30L538.80-12.30Q536.80-14.60 536.80-18L536.80-18L536.80-18Q536.80-22 539.60-25.40L539.60-25.40L542.20-28.60L542.20-28.60Q553.20-42.20 558.80-51L558.80-51L558.80-51Q562.20-56.80 566.80-66.50L566.80-66.50L566.80-66.50Q571.40-76.20 575.80-86.60L575.80-86.60L575.80-86.60Q579.60-95.40 591.60-95.40L591.60-95.40L591.60-95.40Q597.20-95.40 599.40-94.40L599.40-94.40L599.40-94.40Q601.60-93.40 601.60-91.20L601.60-91.20L601.60-91.20Q601.60-90 600.80-87.40L600.80-87.40L600.80-87.40Q600-84.80 598.60-82.20L598.60-82.20L598.60-82.20Q595-75 595-70L595-70L595-70Q595-67 597.10-63.40L597.10-63.40L597.10-63.40Q599.20-59.80 603.60-54.40L603.60-54.40L603.60-54.40Q610-46 613.30-40.10L613.30-40.10L613.30-40.10Q616.60-34.20 616.60-27.20L616.60-27.20L616.60-27.20Q616.60-25.20 616.20-21.60L616.20-21.60L616.20-21.60Q626-25.40 639.20-41.80L639.20-41.80L639.20-41.80Q641.60-44.60 644.60-44.60L644.60-44.60L644.60-44.60Q647.20-44.60 648.70-42.20L648.70-42.20L648.70-42.20Q650.20-39.80 650.20-35.60L650.20-35.60L650.20-35.60Q650.20-28 646.40-23.20L646.40-23.20L646.40-23.20Q636.40-10.80 627.30-6.30L627.30-6.30L627.30-6.30Q618.20-1.80 604.80-1.40L604.80-1.40L604.80-1.40Q596.80 5.40 585.80 5.40L585.80 5.40ZM646.40-49.20L646.40-49.20Q641.60-48.80 638.70-52L638.70-52L638.70-52Q635.80-55.20 635.80-61L635.80-61L635.80-61Q635.80-66.40 638.50-69L638.50-69L638.50-69Q641.20-71.60 646.40-72L646.40-72L687.40-76L687.40-76Q692.40-76.40 695.10-73.50L695.10-73.50L695.10-73.50Q697.80-70.60 697.80-65L697.80-65L697.80-65Q697.80-54.20 687.40-53.20L687.40-53.20L646.40-49.20ZM752.80 1L752.80 1Q733.20 1 722.30-10.10L722.30-10.10L722.30-10.10Q711.40-21.20 711.40-39.40L711.40-39.40L711.40-39.40Q711.40-55.60 717.80-67.80L717.80-67.80L717.80-67.80Q724.20-80 734.40-86.60L734.40-86.60L734.40-86.60Q744.60-93.20 755.80-93.20L755.80-93.20L755.80-93.20Q766.80-93.20 772.90-86.70L772.90-86.70L772.90-86.70Q779-80.20 779-70L779-70L779-70Q779-61.60 775.30-55.80L775.30-55.80L775.30-55.80Q771.60-50 765.60-50L765.60-50L765.60-50Q761.80-50 759.50-51.80L759.50-51.80L759.50-51.80Q757.20-53.60 757.20-56.80L757.20-56.80L757.20-56.80Q757.20-58.20 757.60-60L757.60-60L757.60-60Q758-61.80 758.20-62.60L758.20-62.60L758.20-62.60Q759.20-65.60 759.20-68.20L759.20-68.20L759.20-68.20Q759.20-70.80 757.90-72.20L757.90-72.20L757.90-72.20Q756.60-73.60 754.20-73.60L754.20-73.60L754.20-73.60Q749.60-73.60 745.60-69.50L745.60-69.50L745.60-69.50Q741.60-65.40 739.20-58.40L739.20-58.40L739.20-58.40Q736.80-51.40 736.80-43L736.80-43L736.80-43Q736.80-19.80 757-19.80L757-19.80L757-19.80Q765.20-19.80 774.70-25.30L774.70-25.30L774.70-25.30Q784.20-30.80 793.40-41.80L793.40-41.80L793.40-41.80Q795.80-44.60 798.80-44.60L798.80-44.60L798.80-44.60Q801.40-44.60 802.90-42.20L802.90-42.20L802.90-42.20Q804.40-39.80 804.40-35.60L804.40-35.60L804.40-35.60Q804.40-28 800.60-23.20L800.60-23.20L800.60-23.20Q791.20-11.60 778.10-5.30L778.10-5.30L778.10-5.30Q765 1 752.80 1L752.80 1ZM864-44.60L864-44.60Q866.60-44.60 868.10-42.20L868.10-42.20L868.10-42.20Q869.60-39.80 869.60-35.60L869.60-35.60L869.60-35.60Q869.60-27.60 865.80-23.20L865.80-23.20L865.80-23.20Q857.20-12.60 847.10-5.80L847.10-5.80L847.10-5.80Q837 1 824.20 1L824.20 1L824.20 1Q806.60 1 798.10-15L798.10-15L798.10-15Q789.60-31 789.60-56.40L789.60-56.40L789.60-56.40Q789.60-80.80 795.90-112L795.90-112L795.90-112Q802.20-143.20 814.50-165.60L814.50-165.60L814.50-165.60Q826.80-188 843.80-188L843.80-188L843.80-188Q853.40-188 858.90-179.10L858.90-179.10L858.90-179.10Q864.40-170.20 864.40-153.60L864.40-153.60L864.40-153.60Q864.40-129.80 851.20-98.40L851.20-98.40L851.20-98.40Q838-67 815.40-36.20L815.40-36.20L815.40-36.20Q816.80-28 820-24.50L820-24.50L820-24.50Q823.20-21 828.40-21L828.40-21L828.40-21Q836.60-21 842.80-25.70L842.80-25.70L842.80-25.70Q849-30.40 858.60-41.80L858.60-41.80L858.60-41.80Q861-44.60 864-44.60L864-44.60ZM839.40-168.20L839.40-168.20Q834.80-168.20 829-151.60L829-151.60L829-151.60Q823.20-135 818.80-110.40L818.80-110.40L818.80-110.40Q814.40-85.80 814-63.20L814-63.20L814-63.20Q828.20-86.60 836.60-110.10L836.60-110.10L836.60-110.10Q845-133.60 845-153L845-153L845-153Q845-168.20 839.40-168.20L839.40-168.20ZM879.60-106.40L879.60-106.40Q871.20-106.40 867.00-110.30L867.00-110.30L867.00-110.30Q862.80-114.20 862.80-121.20L862.80-121.20L862.80-121.20Q862.80-128.20 868.30-132.90L868.30-132.90L868.30-132.90Q873.80-137.60 882.00-137.60L882.00-137.60L882.00-137.60Q889.40-137.60 894.00-134L894.00-134L894.00-134Q898.60-130.40 898.60-123.80L898.60-123.80L898.60-123.80Q898.60-115.80 893.40-111.10L893.40-111.10L893.40-111.10Q888.20-106.40 879.60-106.40L879.60-106.40ZM878.00 1L878.00 1Q865.00 1 859.10-8.20L859.10-8.20L859.10-8.20Q853.20-17.40 853.20-32.60L853.20-32.60L853.20-32.60Q853.20-41.60 855.50-55.70L855.50-55.70L855.50-55.70Q857.80-69.80 861.40-82L861.40-82L861.40-82Q863.20-88.40 866.20-90.80L866.20-90.80L866.20-90.80Q869.20-93.20 875.80-93.20L875.80-93.20L875.80-93.20Q886.00-93.20 886.00-86.40L886.00-86.40L886.00-86.40Q886.00-81.40 882.20-63.20L882.20-63.20L882.20-63.20Q877.40-41.20 877.40-33.40L877.40-33.40L877.40-33.40Q877.40-27.40 879.00-24.20L879.00-24.20L879.00-24.20Q880.60-21 884.40-21L884.40-21L884.40-21Q888.00-21 893.40-26L893.40-26L893.40-26Q898.80-31 907.80-41.80L907.80-41.80L907.80-41.80Q910.20-44.60 913.20-44.60L913.20-44.60L913.20-44.60Q915.80-44.60 917.30-42.20L917.30-42.20L917.30-42.20Q918.80-39.80 918.80-35.60L918.80-35.60L918.80-35.60Q918.80-27.60 915.00-23.20L915.00-23.20L915.00-23.20Q895.20 1 878.00 1L878.00 1Z" fill="#ffffff"></path></g></g><style>text {
  font-size: 64px;
  font-family: Arial Black;
  dominant-baseline: central;
  text-anchor: middle;
}</style></svg>